<svg xmlns="http://www.w3.org/2000/svg" xmlns:xlink="http://www.w3.org/1999/xlink" viewBox="0 0 500 700">
	<rect x="48.177" y="235.363" width="204.452" height="19.85"/>
	<rect x="48.177" y="141.4" width="36.171" height="19.85"/>
	<rect x="134.306" y="141.4" width="55.439" height="19.85"/>
	<rect x="252.629" y="141.4" width="64.401" height="19.85"/>
	<rect x="379.937" y="141.4" width="69.818" height="19.85"/>
	<rect x="78.549" y="66.424" width="249.859" height="13.419"/>
	<rect x="48.177" y="272.961" width="287.497" height="13.419"/>
	<rect x="48.177" y="299.825" width="287.497" height="13.419"/>
	<path d="M450.34,333.476h-83.765c-2.299,0-4.163-1.864-4.163-4.163V219.141c0-2.299,1.864-4.163,4.163-4.163h83.765
		c2.299,0,4.163,1.864,4.163,4.163v110.173C454.503,331.613,452.639,333.476,450.34,333.476z"/>
	<rect x="48.177" y="398.824" width="204.452" height="19.85"/>
	<rect x="48.177" y="436.422" width="287.497" height="13.419"/>
	<rect x="48.177" y="463.286" width="287.497" height="13.419"/>
	<path d="M450.34,496.937h-83.765c-2.299,0-4.163-1.864-4.163-4.163V382.602c0-2.299,1.864-4.163,4.163-4.163h83.765
		c2.299,0,4.163,1.864,4.163,4.163v110.173C454.503,495.074,452.639,496.937,450.34,496.937z"/>
	<rect x="48.177" y="562.285" width="204.452" height="19.85"/>
	<rect x="48.177" y="599.882" width="287.497" height="13.419"/>
	<rect x="48.177" y="626.747" width="287.497" height="13.419"/>
	<path d="M450.34,660.398h-83.765c-2.299,0-4.163-1.864-4.163-4.163V546.063c0-2.299,1.864-4.163,4.163-4.163h83.765
		c2.299,0,4.163,1.864,4.163,4.163v110.173C454.503,658.534,452.639,660.398,450.34,660.398z"/>
	<g>
		<path d="M424.764,1039.073H75.236c-40.577,0-73.589-33.012-73.589-73.589V75.305c0-40.577,33.012-73.59,73.589-73.59h349.528
			c40.577,0,73.589,33.013,73.589,73.59v890.179C498.353,1006.061,465.341,1039.073,424.764,1039.073z M75.236,7.915
			c-37.159,0-67.389,30.232-67.389,67.39v890.179c0,37.159,30.231,67.389,67.389,67.389h349.528
			c37.159,0,67.389-30.231,67.389-67.389V75.305c0-37.159-30.231-67.39-67.389-67.39H75.236z"/>
		<g>
			<path d="M46.301,87.002c-0.529,0-1.057-0.202-1.461-0.605L31.577,73.134L44.84,59.871c0.807-0.807,2.115-0.807,2.922,0
				s0.807,2.115,0,2.922L37.422,73.134l10.341,10.341c0.807,0.807,0.807,2.115,0,2.922C47.359,86.8,46.83,87.002,46.301,87.002z"/>
		</g>
	</g>
	<g>
		<g>
			<path d="M463.684,87.835c-0.529,0-1.057-0.202-1.461-0.605l-19.347-19.345c-0.807-0.807-0.807-2.115,0-2.922
				c0.807-0.807,2.115-0.807,2.922,0l19.347,19.345c0.807,0.807,0.807,2.115,0,2.922C464.742,87.634,464.213,87.835,463.684,87.835
				z"/>
		</g>
		<g>
			<path d="M444.337,87.835c-0.529,0-1.057-0.202-1.461-0.605c-0.807-0.807-0.807-2.115,0-2.922l19.347-19.345
				c0.807-0.807,2.115-0.807,2.922,0s0.807,2.115,0,2.922L445.798,87.23C445.395,87.634,444.866,87.835,444.337,87.835z"/>
		</g>
	</g>
	<rect x="4.747" y="110.427" width="490.506" height="2.067"/>
	<rect x="4.747" y="187.082" width="490.506" height="2.067"/>
</svg>
