<svg xmlns="http://www.w3.org/2000/svg" xmlns:xlink="http://www.w3.org/1999/xlink" viewBox="0 0 500 700">
	<g>
		<circle cx="435.197" cy="73.764" r="3.621"/>
		<circle cx="445.529" cy="73.764" r="3.621"/>
		<circle cx="455.862" cy="73.764" r="3.621"/>
	</g>
	<rect x="160.365" y="61.352" width="179.271" height="17.582"/>
	<circle cx="60.867" cy="265.585" r="23.276"/>
	<rect x="97.369" y="242.309" width="233.736" height="17.582"/>
	<rect x="97.369" y="269.227" width="348.161" height="13.419"/>
	<circle cx="60.867" cy="347.74" r="23.276"/>
	<rect x="97.369" y="324.464" width="233.736" height="17.582"/>
	<rect x="97.369" y="351.382" width="348.161" height="13.419"/>
	<circle cx="60.867" cy="183.43" r="23.276"/>
	<rect x="97.369" y="160.154" width="233.736" height="17.582"/>
	<rect x="97.369" y="187.072" width="348.161" height="13.419"/>
	<circle cx="60.867" cy="512.051" r="23.276"/>
	<rect x="97.369" y="488.775" width="233.736" height="17.582"/>
	<rect x="97.369" y="515.693" width="348.161" height="13.419"/>
	<circle cx="60.867" cy="594.206" r="23.276"/>
	<rect x="97.369" y="570.93" width="233.736" height="17.582"/>
	<rect x="97.369" y="597.848" width="348.161" height="13.419"/>
	<circle cx="60.867" cy="676.362" r="23.276"/>
	<rect x="97.369" y="653.086" width="233.736" height="17.582"/>
	<rect x="97.369" y="680.003" width="348.161" height="13.419"/>
	<circle cx="60.867" cy="429.896" r="23.276"/>
	<rect x="97.369" y="406.62" width="233.736" height="17.582"/>
	<rect x="97.369" y="433.538" width="348.161" height="13.419"/>
	<g>
		<path d="M424.765,1039.073H75.237c-40.577,0-73.591-33.012-73.591-73.589V75.305c0-40.577,33.014-73.59,73.591-73.59h349.528
			c40.577,0,73.589,33.013,73.589,73.59v890.179C498.354,1006.061,465.342,1039.073,424.765,1039.073z M75.237,7.915
			c-37.159,0-67.391,30.232-67.391,67.39v890.179c0,37.159,30.233,67.389,67.391,67.389h349.528
			c37.159,0,67.389-30.231,67.389-67.389V75.305c0-37.159-30.231-67.39-67.389-67.39H75.237z"/>
		<g>
			<path d="M46.3,87.002c-0.529,0-1.057-0.202-1.461-0.605L31.576,73.134l13.263-13.263c0.807-0.807,2.115-0.807,2.922,0
				s0.807,2.115,0,2.922L37.421,73.134l10.341,10.341c0.807,0.807,0.807,2.115,0,2.922C47.358,86.8,46.829,87.002,46.3,87.002z"/>
		</g>
	</g>
	<rect x="3.707" y="110.427" width="490.506" height="2.067"/>
</svg>
