<?xml version="1.0" encoding="utf-8"?>
<svg xmlns="http://www.w3.org/2000/svg" xmlns:xlink="http://www.w3.org/1999/xlink" viewBox="0 0 500 700">
	<g>
		<circle cx="448.912" cy="73.764" r="3.621"/>
		<circle cx="459.245" cy="73.764" r="3.621"/>
		<circle cx="469.577" cy="73.764" r="3.621"/>
	</g>
	<rect x="194.476" y="61.352" width="111.05" height="17.582"/>
	<g>
		<circle cx="49.287" cy="167.352" r="23.276"/>
		<rect x="85.789" y="144.076" width="233.736" height="17.582"/>
		<rect x="31.447" y="227.111" width="402.503" height="13.419"/>
		<rect x="85.789" y="170.994" width="348.161" height="13.419"/>
		<rect x="85.789" y="192.612" width="306.917" height="13.419"/>
		<rect x="31.447" y="253.976" width="402.503" height="13.419"/>
		<rect x="31.447" y="280.841" width="402.503" height="13.419"/>
		<rect x="31.447" y="304.756" width="402.503" height="13.419"/>
		<rect x="31.447" y="331.621" width="402.503" height="13.419"/>
		<rect x="31.447" y="358.485" width="402.503" height="13.419"/>
		<rect x="31.447" y="385.35" width="402.503" height="13.419"/>
		<rect x="31.447" y="412.214" width="402.503" height="13.419"/>
		<rect x="31.447" y="458.74" width="402.503" height="13.419"/>
		<rect x="31.447" y="485.605" width="402.503" height="13.419"/>
		<rect x="31.447" y="512.469" width="402.503" height="13.419"/>
		<rect x="31.447" y="539.334" width="402.503" height="13.419"/>
		<path d="M466.721,809.758H31.848c-2.299,0-4.163-1.864-4.163-4.163V578.292c0-2.299,1.864-4.163,4.163-4.163h434.873
			c2.299,0,4.163,1.864,4.163,4.163v227.303C470.884,807.894,469.02,809.758,466.721,809.758z"/>
	</g>
	<g>
		<path d="M424.764,1039.073H75.236c-40.577,0-73.589-33.012-73.589-73.589V75.305c0-40.577,33.012-73.59,73.589-73.59h349.528
			c40.577,0,73.589,33.013,73.589,73.59v890.179C498.353,1006.061,465.341,1039.073,424.764,1039.073z M75.236,7.915
			c-37.159,0-67.389,30.232-67.389,67.39v890.179c0,37.159,30.231,67.389,67.389,67.389h349.528
			c37.159,0,67.389-30.231,67.389-67.389V75.305c0-37.159-30.231-67.39-67.389-67.39H75.236z"/>
		<g>
			<path d="M46.301,87.002c-0.529,0-1.057-0.202-1.461-0.605L31.577,73.134L44.84,59.871c0.807-0.807,2.115-0.807,2.922,0
				s0.807,2.115,0,2.922L37.422,73.134l10.341,10.341c0.807,0.807,0.807,2.115,0,2.922C47.359,86.8,46.83,87.002,46.301,87.002z"/>
		</g>
	</g>
	<rect x="4.747" y="110.427" width="490.506" height="2.067"/>
</svg>
